<svg width="88" height="18" viewBox="0 0 88 18" fill="none" xmlns="http://www.w3.org/2000/svg">
<path d="M13.584 4.5249H16.1186L17.8379 6.86356L19.5487 4.5249H22.0407L19.0873 8.56295L22.4271 13.1057H19.8924L17.8232 10.2908L15.7647 13.1055H13.2721L16.574 8.59156L13.584 4.5249Z" fill="#757575"/>
<path d="M25.7053 4.52504V5.47138C26.0997 5.08236 26.5261 4.7906 26.9846 4.59596C27.443 4.40159 27.9333 4.3042 28.4558 4.3042C29.5912 4.3042 30.5559 4.72747 31.3503 5.57401C32.1445 6.42054 32.5416 7.50618 32.5416 8.8312C32.5416 10.1088 32.1311 11.1774 31.3102 12.0372C30.4893 12.8966 29.5164 13.3266 28.3918 13.3266C27.8906 13.3266 27.4243 13.2386 26.9925 13.0624C26.5608 12.8862 26.1316 12.5986 25.7052 12.1988V16.2446H23.5383V4.52504H25.7053ZM28.0001 6.29159C27.3125 6.29159 26.7421 6.52303 26.2891 6.98566C25.8359 7.44842 25.6094 8.05304 25.6094 8.79963C25.6094 9.56221 25.8359 10.1788 26.2891 10.6492C26.7421 11.1199 27.3125 11.355 28.0001 11.355C28.6663 11.355 29.2274 11.116 29.6832 10.6374C30.139 10.1588 30.3669 9.54878 30.3669 8.80756C30.3669 8.07157 30.143 7.46817 29.6952 6.99748C29.2474 6.52693 28.6824 6.29159 28.0001 6.29159Z" fill="#757575"/>
<path d="M33.837 4.52504H35.7081V5.60557C35.9106 5.17962 36.1798 4.85629 36.5156 4.63545C36.8515 4.41462 37.2193 4.3042 37.6191 4.3042C37.9016 4.3042 38.1974 4.37781 38.5067 4.52504L37.8271 6.37836C37.5712 6.25223 37.3605 6.1891 37.1955 6.1891C36.8596 6.1891 36.5758 6.39421 36.3439 6.80432C36.112 7.21442 35.9961 8.01892 35.9961 9.21766L36.0041 9.63556V13.1058H33.8373V4.52504H33.837Z" fill="#757575"/>
<path d="M48.3011 9.43872H41.2888C41.39 10.0487 41.6606 10.5335 42.1004 10.8938C42.5401 11.254 43.101 11.4339 43.7833 11.4339C44.5989 11.4339 45.2999 11.1527 45.886 10.59L47.725 11.4418C47.2668 12.0834 46.7178 12.5581 46.078 12.8656C45.4382 13.173 44.6789 13.327 43.7994 13.327C42.4347 13.327 41.3233 12.9025 40.4652 12.0534C39.607 11.2045 39.1779 10.1409 39.1779 8.86326C39.1779 7.55396 39.6056 6.46711 40.4611 5.60203C41.3166 4.73722 42.3894 4.30469 43.6794 4.30469C45.0493 4.30469 46.1631 4.73722 47.0215 5.60203C47.8798 6.46697 48.3089 7.60917 48.3089 9.02888L48.3011 9.43872ZM46.1182 7.74282C45.9739 7.26448 45.6898 6.87533 45.265 6.57564C44.8403 6.27596 44.3481 6.12618 43.787 6.12618C43.1785 6.12618 42.6446 6.29449 42.1855 6.63085C41.8972 6.84121 41.6301 7.21196 41.3846 7.74282H46.1182Z" fill="#757575"/>
<path d="M55.3932 5.72378L54.042 7.05659C53.4929 6.52035 52.9946 6.25209 52.5468 6.25209C52.3014 6.25209 52.1095 6.30341 51.971 6.4059C51.8323 6.50839 51.7632 6.63601 51.7632 6.78847C51.7632 6.90412 51.8071 7.01065 51.8952 7.1079C51.9832 7.20529 52.2002 7.33787 52.5468 7.50618L53.3464 7.90057C54.1887 8.31068 54.7668 8.72871 55.0813 9.15439C55.3958 9.58048 55.5531 10.0801 55.5531 10.653C55.5531 11.4154 55.2693 12.0515 54.7015 12.5616C54.1338 13.0717 53.3728 13.3264 52.4187 13.3264C51.1501 13.3264 50.1372 12.8373 49.3801 11.8595L50.7234 10.4163C50.9793 10.7106 51.2791 10.9486 51.6228 11.13C51.9665 11.3114 52.2719 11.402 52.5384 11.402C52.8263 11.402 53.0581 11.3336 53.2339 11.1971C53.4097 11.0602 53.4978 10.9027 53.4978 10.7239C53.4978 10.3926 53.1806 10.0693 52.5463 9.75363L51.8109 9.39108C50.4037 8.6919 49.7 7.81648 49.7 6.76483C49.7 6.0866 49.9652 5.50684 50.4956 5.02581C51.0261 4.54465 51.7042 4.3042 52.5303 4.3042C53.0952 4.3042 53.6272 4.42644 54.1255 4.67092C54.6242 4.91539 55.0468 5.26639 55.3932 5.72378Z" fill="#757575"/>
<path d="M62.5972 5.72378L61.2458 7.05659C60.6969 6.52035 60.1986 6.25209 59.7507 6.25209C59.5054 6.25209 59.3135 6.30341 59.175 6.4059C59.0361 6.50839 58.9671 6.63601 58.9671 6.78847C58.9671 6.90412 59.011 7.01065 59.099 7.1079C59.187 7.20529 59.4041 7.33787 59.7507 7.50618L60.5502 7.90057C61.3925 8.31068 61.9707 8.72871 62.2853 9.15439C62.5998 9.58048 62.7571 10.0801 62.7571 10.653C62.7571 11.4154 62.4733 12.0515 61.9055 12.5616C61.3377 13.0717 60.5768 13.3264 59.6225 13.3264C58.3541 13.3264 57.341 12.8373 56.5841 11.8595L57.9274 10.4163C58.1833 10.7106 58.4831 10.9486 58.8268 11.13C59.1707 11.3114 59.476 11.402 59.7425 11.402C60.0302 11.402 60.262 11.3336 60.438 11.1971C60.6138 11.0602 60.7019 10.9027 60.7019 10.7239C60.7019 10.3926 60.3847 10.0693 59.7504 9.75363L59.0149 9.39108C57.6077 8.6919 56.904 7.81648 56.904 6.76483C56.904 6.0866 57.1692 5.50684 57.6997 5.02581C58.2302 4.54465 58.9084 4.3042 59.7345 4.3042C60.2993 4.3042 60.8311 4.42644 61.3296 4.67092C61.828 4.91539 62.2507 5.26639 62.5972 5.72378Z" fill="#757575"/>
<path d="M65.3279 0.991699C65.7105 0.991699 66.0387 1.12845 66.3123 1.4018C66.5862 1.6753 66.7232 2.00655 66.7232 2.39557C66.7232 2.77934 66.5877 3.1067 66.3166 3.37751C66.0455 3.64845 65.7213 3.78371 65.3439 3.78371C64.9557 3.78371 64.625 3.64562 64.3511 3.36958C64.0773 3.09354 63.9406 2.75839 63.9406 2.364C63.9406 1.98546 64.0759 1.662 64.3469 1.39388C64.6182 1.12576 64.945 0.991699 65.3279 0.991699ZM64.2365 4.52494H66.4192V13.1057H64.2365V4.52494Z" fill="#757575"/>
<path d="M72.488 4.3042C73.3085 4.3042 74.0801 4.50663 74.8027 4.9115C75.5249 5.3165 76.0884 5.86577 76.4937 6.55984C76.8989 7.25392 77.1015 8.00306 77.1015 8.80756C77.1015 9.61729 76.8975 10.3745 76.4898 11.0789C76.082 11.7836 75.5264 12.3343 74.8227 12.7313C74.1191 13.1282 73.3436 13.3268 72.496 13.3268C71.2487 13.3268 70.1838 12.8891 69.3017 12.0138C68.4194 11.1383 67.9784 10.0749 67.9784 8.82354C67.9784 7.48281 68.4768 6.3656 69.4736 5.47165C70.3477 4.69335 71.3525 4.3042 72.488 4.3042ZM72.524 6.33108C71.8459 6.33108 71.2811 6.56374 70.8301 7.02905C70.3789 7.49436 70.1531 8.08984 70.1531 8.81535C70.1531 9.56221 70.3762 10.1667 70.8219 10.6293C71.2676 11.0919 71.8324 11.3234 72.5158 11.3234C73.1991 11.3234 73.7677 11.0897 74.2215 10.6213C74.6753 10.1535 74.9023 9.55133 74.9023 8.81535C74.9023 8.07936 74.6792 7.4812 74.2337 7.02112C73.788 6.56118 73.2181 6.33108 72.524 6.33108Z" fill="#757575"/>
<path d="M78.8845 4.52504H81.0673V5.40435C81.5623 4.99277 82.0106 4.70651 82.4125 4.54559C82.8143 4.38466 83.2257 4.3042 83.6462 4.3042C84.5084 4.3042 85.2402 4.6012 85.8419 5.19533C86.3474 5.7 86.6003 6.44674 86.6003 7.43512V13.1055H84.4412V9.34809C84.4412 8.32397 84.3947 7.64401 84.3018 7.30792C84.2086 6.97183 84.0466 6.7158 83.8152 6.53983C83.5838 6.36386 83.2981 6.27587 82.9578 6.27587C82.5164 6.27587 82.1375 6.42162 81.8209 6.71311C81.5047 7.0046 81.285 7.40772 81.1627 7.92233C81.0989 8.19018 81.0673 8.77048 81.0673 9.66309V13.1055H78.8845V4.52504Z" fill="#757575"/>
<path d="M13.8264 10.4244C9.38021 14.599 5.44952 15.0226 3.15305 13.6532L3.15237 13.6524L2.90302 13.9764L1.60423 12.9514L1.89975 12.5258C0.352013 10.4499 0.717668 6.97952 4.15182 4.12275C5.62289 2.77813 7.55657 2.35943 9.05446 2.28904C11.0656 2.19487 12.4032 3.4808 12.2683 5.17414C12.129 6.92095 10.4068 9.10486 5.27766 10.8908L5.08809 11.1367C5.10171 11.1433 5.11438 11.1504 5.12799 11.1567C6.78808 11.9176 9.64767 11.4567 12.4667 8.55129L13.8264 10.4244ZM3.80673 9.77905L4.22223 9.18075C5.51149 8.98853 7.03879 8.1745 7.97683 7.2385C8.80388 6.41346 9.13303 5.5958 8.85399 5.1689C8.71209 4.79762 7.46301 4.43063 5.89471 5.6541C3.93788 7.10619 3.41044 8.64693 3.80673 9.77905Z" fill="#757575"/>
<path d="M1.67741 13.1734L2.67197 13.9678C2.75545 14.0347 2.76839 14.1562 2.7007 14.2389L2.15828 14.8995C2.0906 14.9819 1.96721 14.9946 1.88373 14.9279L0.889317 14.134C0.805836 14.0674 0.792898 13.9457 0.860309 13.8629L1.40287 13.202C1.47055 13.12 1.59407 13.1068 1.67741 13.1734Z" fill="#757575"/>
</svg>
